<svg width="76" height="76" xmlns="http://www.w3.org/2000/svg" xmlns:xlink="http://www.w3.org/1999/xlink" xml:space="preserve" overflow="hidden"><defs><radialGradient cx="-67.981" cy="793.199" r="0.45" gradientUnits="userSpaceOnUse" spreadMethod="pad" id="fill0" gradientTransform="matrix(74.9107 74.9107 101.954 -101.954 -74666.4 86476.2)"><stop offset="0" stop-color="#83B9F9"/><stop offset="1" stop-color="#0078D4"/></radialGradient></defs><g transform="translate(-1076 -478)"><path d="M1076 489.4 1076 542.6C1076 548.895 1081.1 554 1087.4 554L1140.6 554C1146.9 554 1152 548.895 1152 542.6L1152 489.4C1152 483.105 1146.9 478 1140.6 478L1087.4 478C1081.1 478 1076 483.105 1076 489.4ZM1121.6 478 1121.6 493.2C1121.6 509.988 1135.21 523.6 1152 523.6L1136.8 523.6C1120.01 523.6 1106.4 537.204 1106.4 553.992L1106.4 538.8C1106.4 522.012 1092.79 508.4 1076 508.4L1091.2 508.4C1107.99 508.4 1121.6 494.788 1121.6 478Z" fill="url(#fill0)" fill-rule="evenodd"/></g></svg>